# xmcd CD database file
#
# Track frame offsets:
#	150
#	16270
#	37152
#	48660
#	54905
#	74925
#	99540
#	113420
#	131867
#	144892
#	171802
#
# Disc length: 2531 seconds
#
# Revision: 3
# Processed by: cddbd v1.5.2PL0 Copyright (c) Steve Scherf et al.
# Submitted via: CDex 1.70beta2
#
DISCID=9c09e10b
DTITLE=つボイノリオ - ジョーズ・ヘタ
DYEAR=1976
DGENRE=JPop
TTITLE0=オー・ジョーズ (つボイノリオのテーマ)
TTITLE1=金太の大冒険
TTITLE2=女学生
TTITLE3=ヤイ・ヤイ・オウ・オウ・イエ・イエ・ウェスタン・ハピネス・イッツ・オールライト
TTITLE4=快傑黒頭巾
TTITLE5=極付け!お万の方
TTITLE6=一宮の夜
TTITLE7=男の子守唄
TTITLE8=ワッパ人生
TTITLE9=吉田松陰物語
TTITLE10=気楽な時代も過ぎました
EXTD=YEAR: 1976
EXTT0=
EXTT1=
EXTT2=
EXTT3=
EXTT4=
EXTT5=
EXTT6=
EXTT7=
EXTT8=
EXTT9=
EXTT10=
PLAYORDER=
